<svg width="14" height="15" viewBox="0 0 14 15" fill="none" xmlns="http://www.w3.org/2000/svg">
<path d="M13.3 1.21002C13.1131 1.02276 12.8595 0.917532 12.595 0.917532C12.3305 0.917532 12.0768 1.02276 11.89 1.21002L6.99997 6.09002L2.10997 1.20002C1.92314 1.01276 1.66949 0.907532 1.40497 0.907532C1.14045 0.907532 0.886802 1.01276 0.699971 1.20002C0.309971 1.59002 0.309971 2.22002 0.699971 2.61002L5.58997 7.50002L0.699971 12.39C0.309971 12.78 0.309971 13.41 0.699971 13.8C1.08997 14.19 1.71997 14.19 2.10997 13.8L6.99997 8.91002L11.89 13.8C12.28 14.19 12.91 14.19 13.3 13.8C13.69 13.41 13.69 12.78 13.3 12.39L8.40997 7.50002L13.3 2.61002C13.68 2.23002 13.68 1.59002 13.3 1.21002Z" fill="#FBFBFB"/>
</svg>
